<svg width="16" height="16" viewBox="0 0 16 16" fill="none" xmlns="http://www.w3.org/2000/svg">
<path d="M7.99967 14.6668C4.31767 14.6668 1.33301 11.6822 1.33301 8.00016C1.33301 4.31816 4.31767 1.3335 7.99967 1.3335C11.6817 1.3335 14.6663 4.31816 14.6663 8.00016C14.6663 11.6822 11.6817 14.6668 7.99967 14.6668ZM7.99967 13.3335C9.41416 13.3335 10.7707 12.7716 11.7709 11.7714C12.7711 10.7712 13.333 9.41465 13.333 8.00016C13.333 6.58567 12.7711 5.22912 11.7709 4.22893C10.7707 3.22873 9.41416 2.66683 7.99967 2.66683C6.58519 2.66683 5.22863 3.22873 4.22844 4.22893C3.22824 5.22912 2.66634 6.58567 2.66634 8.00016C2.66634 9.41465 3.22824 10.7712 4.22844 11.7714C5.22863 12.7716 6.58519 13.3335 7.99967 13.3335ZM5.66634 9.3335H9.33301C9.42141 9.3335 9.5062 9.29838 9.56871 9.23587C9.63122 9.17335 9.66634 9.08857 9.66634 9.00016C9.66634 8.91176 9.63122 8.82697 9.56871 8.76446C9.5062 8.70195 9.42141 8.66683 9.33301 8.66683H6.66634C6.22431 8.66683 5.80039 8.49123 5.48783 8.17867C5.17527 7.86611 4.99967 7.44219 4.99967 7.00016C4.99967 6.55814 5.17527 6.13421 5.48783 5.82165C5.80039 5.50909 6.22431 5.3335 6.66634 5.3335H7.33301V4.00016H8.66634V5.3335H10.333V6.66683H6.66634C6.57794 6.66683 6.49315 6.70195 6.43064 6.76446C6.36813 6.82697 6.33301 6.91176 6.33301 7.00016C6.33301 7.08857 6.36813 7.17335 6.43064 7.23587C6.49315 7.29838 6.57794 7.3335 6.66634 7.3335H9.33301C9.77504 7.3335 10.199 7.50909 10.5115 7.82165C10.8241 8.13421 10.9997 8.55814 10.9997 9.00016C10.9997 9.44219 10.8241 9.86611 10.5115 10.1787C10.199 10.4912 9.77504 10.6668 9.33301 10.6668H8.66634V12.0002H7.33301V10.6668H5.66634V9.3335Z" fill="#2F2B43"/>
</svg>
