<svg width="20" height="20" viewBox="0 0 20 20" fill="none" xmlns="http://www.w3.org/2000/svg">
<path d="M4.16683 1.66406H15.8335C16.0545 1.66406 16.2665 1.75186 16.4228 1.90814C16.579 2.06442 16.6668 2.27638 16.6668 2.4974V18.4499C16.6669 18.5244 16.647 18.5976 16.6092 18.6618C16.5715 18.726 16.5171 18.7789 16.4519 18.815C16.3868 18.851 16.3131 18.869 16.2386 18.8669C16.1641 18.8649 16.0916 18.8429 16.0285 18.8032L10.0002 15.0224L3.97183 18.8024C3.9088 18.842 3.83632 18.864 3.76191 18.8661C3.68751 18.8682 3.6139 18.8503 3.54874 18.8143C3.48358 18.7784 3.42925 18.7256 3.3914 18.6615C3.35355 18.5974 3.33355 18.5243 3.3335 18.4499V2.4974C3.3335 2.27638 3.42129 2.06442 3.57757 1.90814C3.73385 1.75186 3.94582 1.66406 4.16683 1.66406ZM15.0002 3.33073H5.00016V16.1907L10.0002 13.0566L15.0002 16.1907V3.33073Z" fill="#1C6A9B"/>
</svg>
