<svg width="20" height="20" viewBox="0 0 20 20" fill="none" xmlns="http://www.w3.org/2000/svg">
<path d="M6.99984 14.1641L9.99984 11.1641L12.9998 14.1641L14.1665 12.9974L11.1665 9.9974L14.1665 6.9974L12.9998 5.83073L9.99984 8.83073L6.99984 5.83073L5.83317 6.9974L8.83317 9.9974L5.83317 12.9974L6.99984 14.1641ZM9.99984 18.3307C8.84706 18.3307 7.76373 18.112 6.74984 17.6745C5.73595 17.237 4.854 16.6432 4.104 15.8932C3.354 15.1432 2.76025 14.2613 2.32275 13.2474C1.88525 12.2335 1.6665 11.1502 1.6665 9.9974C1.6665 8.84462 1.88525 7.76128 2.32275 6.7474C2.76025 5.73351 3.354 4.85156 4.104 4.10156C4.854 3.35156 5.73595 2.75781 6.74984 2.32031C7.76373 1.88281 8.84706 1.66406 9.99984 1.66406C11.1526 1.66406 12.2359 1.88281 13.2498 2.32031C14.2637 2.75781 15.1457 3.35156 15.8957 4.10156C16.6457 4.85156 17.2394 5.73351 17.6769 6.7474C18.1144 7.76128 18.3332 8.84462 18.3332 9.9974C18.3332 11.1502 18.1144 12.2335 17.6769 13.2474C17.2394 14.2613 16.6457 15.1432 15.8957 15.8932C15.1457 16.6432 14.2637 17.237 13.2498 17.6745C12.2359 18.112 11.1526 18.3307 9.99984 18.3307ZM9.99984 16.6641C11.8609 16.6641 13.4373 16.0182 14.729 14.7266C16.0207 13.4349 16.6665 11.8585 16.6665 9.9974C16.6665 8.13628 16.0207 6.5599 14.729 5.26823C13.4373 3.97656 11.8609 3.33073 9.99984 3.33073C8.13873 3.33073 6.56234 3.97656 5.27067 5.26823C3.979 6.5599 3.33317 8.13628 3.33317 9.9974C3.33317 11.8585 3.979 13.4349 5.27067 14.7266C6.56234 16.0182 8.13873 16.6641 9.99984 16.6641Z" fill="#CD3636"/>
</svg>
