<svg width="20" height="20" viewBox="0 0 20 20" fill="none" xmlns="http://www.w3.org/2000/svg">
<path d="M9.1665 9.16406V5.83073H10.8332V9.16406H14.1665V10.8307H10.8332V14.1641H9.1665V10.8307H5.83317V9.16406H9.1665ZM9.99984 18.3307C5.39734 18.3307 1.6665 14.5999 1.6665 9.9974C1.6665 5.3949 5.39734 1.66406 9.99984 1.66406C14.6023 1.66406 18.3332 5.3949 18.3332 9.9974C18.3332 14.5999 14.6023 18.3307 9.99984 18.3307ZM9.99984 16.6641C11.7679 16.6641 13.4636 15.9617 14.7139 14.7114C15.9641 13.4612 16.6665 11.7655 16.6665 9.9974C16.6665 8.22929 15.9641 6.53359 14.7139 5.28335C13.4636 4.03311 11.7679 3.33073 9.99984 3.33073C8.23173 3.33073 6.53603 4.03311 5.28579 5.28335C4.03555 6.53359 3.33317 8.22929 3.33317 9.9974C3.33317 11.7655 4.03555 13.4612 5.28579 14.7114C6.53603 15.9617 8.23173 16.6641 9.99984 16.6641Z" fill="#5D6370"/>
</svg>
