<svg width="18" height="18" viewBox="0 0 18 18" fill="none" xmlns="http://www.w3.org/2000/svg">
<path d="M3.00003 12H15V3.75H3.00003V12ZM9.75003 13.5V15H12.75V16.5H5.25003V15H8.25003V13.5H2.24403C2.14554 13.4994 2.04814 13.4794 1.95741 13.4411C1.86667 13.4028 1.78439 13.347 1.71527 13.2768C1.64616 13.2066 1.59157 13.1235 1.55463 13.0322C1.5177 12.9409 1.49914 12.8432 1.50003 12.7448V3.00525C1.50003 2.58825 1.84128 2.25 2.24403 2.25H15.756C16.167 2.25 16.5 2.58675 16.5 3.00525V12.7448C16.5 13.1617 16.1588 13.5 15.756 13.5H9.75003Z" fill="#2F2B43"/>
</svg>
