<svg width="28" height="28" viewBox="0 0 28 28" fill="none" xmlns="http://www.w3.org/2000/svg">
<rect x="0.352301" y="0.352301" width="26.569" height="26.569" rx="13.2845" fill="#EFFDF6"/>
<rect x="0.352301" y="0.352301" width="26.569" height="26.569" rx="13.2845" stroke="#F6F6F8" stroke-width="0.704601"/>
<g clip-path="url(#clip0_50057_2263)">
<path d="M11.6132 17.6432C11.534 18.1994 11.2567 18.7083 10.8323 19.0765C10.408 19.4447 9.86504 19.6474 9.30322 19.6474C8.74141 19.6474 8.19846 19.4447 7.7741 19.0765C7.34975 18.7083 7.07248 18.1994 6.99322 17.6432H6.30322V9.64323C6.30322 9.46642 6.37346 9.29685 6.49848 9.17182C6.62351 9.0468 6.79308 8.97656 6.96989 8.97656H16.3032C16.48 8.97656 16.6496 9.0468 16.7746 9.17182C16.8997 9.29685 16.9699 9.46642 16.9699 9.64323V10.9766H18.9699L20.9699 13.6806V17.6432H19.6132C19.534 18.1994 19.2567 18.7083 18.8323 19.0765C18.408 19.4447 17.865 19.6474 17.3032 19.6474C16.7414 19.6474 16.1985 19.4447 15.7741 19.0765C15.3497 18.7083 15.0725 18.1994 14.9932 17.6432H11.6132ZM15.6366 10.3099H7.63656V15.6766C7.8996 15.408 8.22362 15.207 8.58106 15.0906C8.93849 14.9743 9.31875 14.946 9.68947 15.0082C10.0602 15.0703 10.4104 15.2212 10.7103 15.4478C11.0102 15.6745 11.2509 15.9702 11.4119 16.3099H15.1946C15.3066 16.0746 15.4566 15.8606 15.6366 15.6766V10.3099ZM16.9699 14.3099H19.6366V14.1199L18.2979 12.3099H16.9699V14.3099ZM17.3032 18.3099C17.5685 18.3099 17.823 18.2045 18.0106 18.0169C18.1982 17.8293 18.3036 17.5749 18.3036 17.3096C18.3036 17.0443 18.1982 16.7898 18.0106 16.6022C17.823 16.4146 17.5685 16.3092 17.3032 16.3092C17.0379 16.3092 16.7835 16.4146 16.5959 16.6022C16.4083 16.7898 16.3029 17.0443 16.3029 17.3096C16.3029 17.5749 16.4083 17.8293 16.5959 18.0169C16.7835 18.2045 17.0379 18.3099 17.3032 18.3099V18.3099ZM10.3032 17.3099C10.3032 17.1786 10.2774 17.0485 10.2271 16.9272C10.1768 16.8059 10.1032 16.6956 10.0103 16.6028C9.91747 16.5099 9.80723 16.4363 9.68591 16.386C9.56458 16.3358 9.43454 16.3099 9.30322 16.3099C9.1719 16.3099 9.04186 16.3358 8.92054 16.386C8.79921 16.4363 8.68897 16.5099 8.59612 16.6028C8.50326 16.6956 8.4296 16.8059 8.37934 16.9272C8.32909 17.0485 8.30322 17.1786 8.30322 17.3099C8.30322 17.5751 8.40858 17.8295 8.59612 18.017C8.78365 18.2045 9.03801 18.3099 9.30322 18.3099C9.56844 18.3099 9.82279 18.2045 10.0103 18.017C10.1979 17.8295 10.3032 17.5751 10.3032 17.3099V17.3099Z" fill="#2F9461"/>
</g>
<defs>
<clipPath id="clip0_50057_2263">
<rect width="16" height="16" fill="white" transform="translate(5.63672 5.64062)"/>
</clipPath>
</defs>
</svg>
