<svg width="20" height="20" viewBox="0 0 20 20" fill="none" xmlns="http://www.w3.org/2000/svg">
<path d="M15.8332 18.3307H4.1665C3.50346 18.3307 2.86758 18.0673 2.39874 17.5985C1.9299 17.1297 1.6665 16.4938 1.6665 15.8307V2.4974C1.6665 2.27638 1.7543 2.06442 1.91058 1.90814C2.06686 1.75186 2.27882 1.66406 2.49984 1.66406H14.1665C14.3875 1.66406 14.5995 1.75186 14.7558 1.90814C14.912 2.06442 14.9998 2.27638 14.9998 2.4974V12.4974H18.3332V15.8307C18.3332 16.4938 18.0698 17.1297 17.6009 17.5985C17.1321 18.0673 16.4962 18.3307 15.8332 18.3307ZM14.9998 14.1641V15.8307C14.9998 16.0517 15.0876 16.2637 15.2439 16.42C15.4002 16.5763 15.6122 16.6641 15.8332 16.6641C16.0542 16.6641 16.2661 16.5763 16.4224 16.42C16.5787 16.2637 16.6665 16.0517 16.6665 15.8307V14.1641H14.9998ZM13.3332 16.6641V3.33073H3.33317V15.8307C3.33317 16.0517 3.42097 16.2637 3.57725 16.42C3.73353 16.5763 3.94549 16.6641 4.1665 16.6641H13.3332ZM4.99984 5.83073H11.6665V7.4974H4.99984V5.83073ZM4.99984 9.16406H11.6665V10.8307H4.99984V9.16406ZM4.99984 12.4974H9.1665V14.1641H4.99984V12.4974Z" fill="#5D6370"/>
</svg>
