<svg width="28" height="28" viewBox="0 0 28 28" fill="none" xmlns="http://www.w3.org/2000/svg">
<rect x="0.352301" y="0.352301" width="26.569" height="26.569" rx="13.2845" fill="#ECF5FF"/>
<rect x="0.352301" y="0.352301" width="26.569" height="26.569" rx="13.2845" stroke="#F6F6F8" stroke-width="0.704601"/>
<path d="M18.9701 20.3099H8.30339C8.12657 20.3099 7.95701 20.2397 7.83198 20.1146C7.70696 19.9896 7.63672 19.82 7.63672 19.6432V7.64323C7.63672 7.46642 7.70696 7.29685 7.83198 7.17182C7.95701 7.0468 8.12657 6.97656 8.30339 6.97656H18.9701C19.1469 6.97656 19.3164 7.0468 19.4415 7.17182C19.5665 7.29685 19.6367 7.46642 19.6367 7.64323V19.6432C19.6367 19.82 19.5665 19.9896 19.4415 20.1146C19.3164 20.2397 19.1469 20.3099 18.9701 20.3099ZM18.3034 18.9766V8.3099H8.97005V18.9766H18.3034ZM10.9701 10.3099H16.3034V11.6432H10.9701V10.3099ZM10.9701 12.9766H16.3034V14.3099H10.9701V12.9766ZM10.9701 15.6432H16.3034V16.9766H10.9701V15.6432Z" fill="#1C6A9B"/>
</svg>
