<svg width="20" height="20" viewBox="0 0 20 20" fill="none" xmlns="http://www.w3.org/2000/svg">
<path d="M10.8332 10.8327V15.4868L12.3566 13.9635L13.5357 15.1427L9.99991 18.6777L6.46408 15.1427L7.64325 13.9635L9.16658 15.4868V10.8327H10.8332ZM9.99991 1.66602C11.4307 1.66608 12.8116 2.19194 13.8801 3.14361C14.9485 4.09528 15.63 5.4064 15.7949 6.82768C16.8318 7.11045 17.7363 7.7486 18.3505 8.63062C18.9646 9.51264 19.2492 10.5824 19.1546 11.653C19.06 12.7236 18.5922 13.7269 17.8329 14.4875C17.0736 15.2482 16.0712 15.7178 15.0007 15.8143V14.136C15.3842 14.0813 15.7529 13.9506 16.0854 13.7518C16.4179 13.553 16.7074 13.29 16.937 12.978C17.1667 12.6661 17.332 12.3115 17.4231 11.935C17.5143 11.5586 17.5296 11.1677 17.468 10.7852C17.4065 10.4028 17.2694 10.0364 17.0647 9.70756C16.86 9.37868 16.5919 9.09386 16.2759 8.86974C15.96 8.64562 15.6025 8.48667 15.2245 8.40219C14.8465 8.31771 14.4554 8.30938 14.0741 8.37768C14.2046 7.77009 14.1975 7.14099 14.0534 6.53648C13.9093 5.93196 13.6318 5.36734 13.2412 4.88396C12.8507 4.40058 12.3569 4.01069 11.7961 3.74284C11.2354 3.475 10.6218 3.33599 10.0003 3.33599C9.37887 3.33599 8.76529 3.475 8.20452 3.74284C7.64375 4.01069 7.14999 4.40058 6.75941 4.88396C6.36884 5.36734 6.09134 5.93196 5.94723 6.53648C5.80313 7.14099 5.79607 7.77009 5.92658 8.37768C5.16629 8.23491 4.38043 8.4 3.74187 8.83665C3.1033 9.2733 2.66435 9.94573 2.52158 10.706C2.3788 11.4663 2.5439 12.2522 2.98055 12.8907C3.41719 13.5293 4.08963 13.9682 4.84991 14.111L4.99991 14.136V15.8143C3.92945 15.718 2.92692 15.2484 2.16752 14.4878C1.40813 13.7273 0.940184 12.724 0.845474 11.6534C0.750763 10.5828 1.03531 9.51292 1.64939 8.63083C2.26346 7.74874 3.168 7.1105 4.20491 6.82768C4.36967 5.40633 5.05108 4.09511 6.11956 3.1434C7.18804 2.1917 8.56904 1.6659 9.99991 1.66602V1.66602Z" fill="white"/>
</svg>
