<svg width="26" height="26" viewBox="0 0 26 26" fill="none" xmlns="http://www.w3.org/2000/svg">
<path d="M13 23.8327C7.01671 23.8327 2.16663 18.9826 2.16663 12.9993C2.16663 7.0161 7.01671 2.16602 13 2.16602C18.9832 2.16602 23.8333 7.0161 23.8333 12.9993C23.8333 18.9826 18.9832 23.8327 13 23.8327ZM13 21.666C15.2985 21.666 17.5029 20.7529 19.1282 19.1276C20.7535 17.5023 21.6666 15.2979 21.6666 12.9993C21.6666 10.7008 20.7535 8.49641 19.1282 6.87109C17.5029 5.24577 15.2985 4.33268 13 4.33268C10.7014 4.33268 8.49702 5.24577 6.8717 6.87109C5.24639 8.49641 4.33329 10.7008 4.33329 12.9993C4.33329 15.2979 5.24639 17.5023 6.8717 19.1276C8.49702 20.7529 10.7014 21.666 13 21.666ZM11.9166 16.2493H14.0833V18.416H11.9166V16.2493ZM11.9166 7.58268H14.0833V14.0827H11.9166V7.58268Z" fill="#F34141"/>
</svg>
