<svg width="24" height="24" viewBox="0 0 24 24" fill="none" xmlns="http://www.w3.org/2000/svg">
<path d="M19.375 15.1035C20.0239 13.5618 20.1733 11.8555 19.8021 10.2245C19.431 8.59352 18.558 7.11987 17.306 6.01073C16.0539 4.90159 14.4857 4.21274 12.8219 4.04104C11.158 3.86933 9.48222 4.2234 8.03004 5.05347L7.03804 3.31647C8.55567 2.44909 10.2742 1.99484 12.0222 1.99905C13.7703 2.00326 15.4866 2.46579 17 3.34047C21.49 5.93247 23.21 11.4825 21.117 16.1105L22.459 16.8845L18.294 19.0985L18.129 14.3845L19.375 15.1035ZM4.62504 8.89747C3.97618 10.4392 3.82682 12.1455 4.19796 13.7764C4.56909 15.4074 5.44205 16.8811 6.69411 17.9902C7.94617 19.0994 9.51436 19.7882 11.1782 19.9599C12.842 20.1316 14.5179 19.7775 15.97 18.9475L16.962 20.6845C15.4444 21.5519 13.7258 22.0061 11.9778 22.0019C10.2298 21.9977 8.51347 21.5352 7.00004 20.6605C2.51004 18.0685 0.790039 12.5185 2.88304 7.89047L1.54004 7.11747L5.70504 4.90347L5.87004 9.61747L4.62404 8.89847L4.62504 8.89747Z" fill="#1B628E"/>
</svg>
