<svg width="15" height="12" viewBox="0 0 15 12" fill="none" xmlns="http://www.w3.org/2000/svg">
<path d="M0 6C0.626667 2.58667 3.618 0 7.21267 0C10.8073 0 13.798 2.58667 14.4253 6C13.7987 9.41333 10.8073 12 7.21267 12C3.618 12 0.627333 9.41333 0 6ZM7.21267 9.33333C8.09672 9.33333 8.94457 8.98214 9.56969 8.35702C10.1948 7.7319 10.546 6.88406 10.546 6C10.546 5.11595 10.1948 4.2681 9.56969 3.64298C8.94457 3.01786 8.09672 2.66667 7.21267 2.66667C6.32861 2.66667 5.48077 3.01786 4.85564 3.64298C4.23052 4.2681 3.87933 5.11595 3.87933 6C3.87933 6.88406 4.23052 7.7319 4.85564 8.35702C5.48077 8.98214 6.32861 9.33333 7.21267 9.33333ZM7.21267 8C6.68223 8 6.17353 7.78929 5.79845 7.41421C5.42338 7.03914 5.21267 6.53043 5.21267 6C5.21267 5.46957 5.42338 4.96086 5.79845 4.58579C6.17353 4.21071 6.68223 4 7.21267 4C7.7431 4 8.25181 4.21071 8.62688 4.58579C9.00195 4.96086 9.21267 5.46957 9.21267 6C9.21267 6.53043 9.00195 7.03914 8.62688 7.41421C8.25181 7.78929 7.7431 8 7.21267 8Z" fill="#1C6A9B"/>
</svg>
