<svg width="16" height="16" viewBox="0 0 16 16" fill="none" xmlns="http://www.w3.org/2000/svg">
<path d="M3.33366 14.6668C3.15685 14.6668 2.98728 14.5966 2.86225 14.4716C2.73723 14.3465 2.66699 14.177 2.66699 14.0002V2.00016C2.66699 1.82335 2.73723 1.65378 2.86225 1.52876C2.98728 1.40373 3.15685 1.3335 3.33366 1.3335H12.667C12.8438 1.3335 13.0134 1.40373 13.1384 1.52876C13.2634 1.65378 13.3337 1.82335 13.3337 2.00016V4.00016H12.0003V2.66683H4.00033V13.3335H12.0003V12.0002H13.3337V14.0002C13.3337 14.177 13.2634 14.3465 13.1384 14.4716C13.0134 14.5966 12.8438 14.6668 12.667 14.6668H3.33366ZM12.0003 10.6668V8.66683H7.33366V7.3335H12.0003V5.3335L15.3337 8.00016L12.0003 10.6668Z" fill="#2F2B43"/>
</svg>
