<svg width="24" height="24" viewBox="0 0 24 24" fill="none" xmlns="http://www.w3.org/2000/svg">
<path d="M2.43846 6.77574L11.5797 1.29518C11.7333 1.20299 11.9091 1.1543 12.0883 1.1543C12.2674 1.1543 12.4433 1.20299 12.5969 1.29518L21.7292 6.77673C21.8025 6.82064 21.8631 6.88279 21.9052 6.95711C21.9473 7.03144 21.9694 7.1154 21.9694 7.20082V19.7713C21.9694 20.0335 21.8653 20.285 21.6799 20.4704C21.4945 20.6557 21.243 20.7599 20.9809 20.7599H3.1868C2.92462 20.7599 2.67317 20.6557 2.48778 20.4704C2.30239 20.285 2.19824 20.0335 2.19824 19.7713V7.19984C2.19822 7.11442 2.22034 7.03045 2.26244 6.95612C2.30454 6.8818 2.36519 6.81965 2.43846 6.77574ZM4.17536 8.04011V18.7828H19.9923V8.03912L12.0878 3.29404L4.17536 8.03912V8.04011ZM12.1431 13.5414L17.3785 9.1295L18.6518 10.642L12.157 16.1156L5.52375 10.6489L6.7812 9.12258L12.1431 13.5414Z" fill="#2F2B43"/>
</svg>
