<svg width="15" height="15" viewBox="0 0 15 15" fill="none" xmlns="http://www.w3.org/2000/svg">
<path d="M1.94546 4.93188L7.33954 1.69788C7.4302 1.64348 7.53394 1.61475 7.63967 1.61475C7.7454 1.61475 7.84913 1.64348 7.93979 1.69788L13.3286 4.93246C13.3719 4.95837 13.4076 4.99504 13.4325 5.0389C13.4573 5.08276 13.4704 5.1323 13.4704 5.18271V12.6004C13.4704 12.7551 13.4089 12.9035 13.2995 13.0129C13.1901 13.1223 13.0418 13.1837 12.887 13.1837H2.38704C2.23233 13.1837 2.08396 13.1223 1.97457 13.0129C1.86517 12.9035 1.80371 12.7551 1.80371 12.6004V5.18213C1.8037 5.13172 1.81675 5.08217 1.8416 5.03831C1.86644 4.99446 1.90222 4.95779 1.94546 4.93188ZM2.97038 5.67796V12.017H12.3037V5.67738L7.63938 2.87738L2.97038 5.67738V5.67796ZM7.67204 8.92421L10.7614 6.32079L11.5127 7.21329L7.68021 10.4432L3.76604 7.21738L4.50804 6.31671L7.67204 8.92421V8.92421Z" fill="white"/>
</svg>
