<svg width="20" height="20" viewBox="0 0 20 20" fill="none" xmlns="http://www.w3.org/2000/svg">
<path d="M9.99984 18.3307C5.39734 18.3307 1.6665 14.5999 1.6665 9.9974C1.6665 5.3949 5.39734 1.66406 9.99984 1.66406C14.6023 1.66406 18.3332 5.3949 18.3332 9.9974C18.3332 14.5999 14.6023 18.3307 9.99984 18.3307ZM9.99984 16.6641C11.7679 16.6641 13.4636 15.9617 14.7139 14.7114C15.9641 13.4612 16.6665 11.7655 16.6665 9.9974C16.6665 8.22929 15.9641 6.53359 14.7139 5.28335C13.4636 4.03311 11.7679 3.33073 9.99984 3.33073C8.23173 3.33073 6.53603 4.03311 5.28579 5.28335C4.03555 6.53359 3.33317 8.22929 3.33317 9.9974C3.33317 11.7655 4.03555 13.4612 5.28579 14.7114C6.53603 15.9617 8.23173 16.6641 9.99984 16.6641ZM7.08317 11.6641H11.6665C11.777 11.6641 11.883 11.6202 11.9611 11.542C12.0393 11.4639 12.0832 11.3579 12.0832 11.2474C12.0832 11.1369 12.0393 11.0309 11.9611 10.9528C11.883 10.8746 11.777 10.8307 11.6665 10.8307H8.33317C7.78064 10.8307 7.25073 10.6112 6.86003 10.2205C6.46933 9.82983 6.24984 9.29993 6.24984 8.7474C6.24984 8.19486 6.46933 7.66496 6.86003 7.27426C7.25073 6.88356 7.78064 6.66406 8.33317 6.66406H9.1665V4.9974H10.8332V6.66406H12.9165V8.33073H8.33317C8.22266 8.33073 8.11668 8.37463 8.03854 8.45277C7.9604 8.53091 7.9165 8.63689 7.9165 8.7474C7.9165 8.8579 7.9604 8.96388 8.03854 9.04202C8.11668 9.12016 8.22266 9.16406 8.33317 9.16406H11.6665C12.219 9.16406 12.7489 9.38356 13.1396 9.77426C13.5303 10.165 13.7498 10.6949 13.7498 11.2474C13.7498 11.7999 13.5303 12.3298 13.1396 12.7205C12.7489 13.1112 12.219 13.3307 11.6665 13.3307H10.8332V14.9974H9.1665V13.3307H7.08317V11.6641Z" fill="#626262"/>
<path d="M9.99984 18.3307C5.39734 18.3307 1.6665 14.5999 1.6665 9.9974C1.6665 5.3949 5.39734 1.66406 9.99984 1.66406C14.6023 1.66406 18.3332 5.3949 18.3332 9.9974C18.3332 14.5999 14.6023 18.3307 9.99984 18.3307ZM9.99984 16.6641C11.7679 16.6641 13.4636 15.9617 14.7139 14.7114C15.9641 13.4612 16.6665 11.7655 16.6665 9.9974C16.6665 8.22929 15.9641 6.53359 14.7139 5.28335C13.4636 4.03311 11.7679 3.33073 9.99984 3.33073C8.23173 3.33073 6.53603 4.03311 5.28579 5.28335C4.03555 6.53359 3.33317 8.22929 3.33317 9.9974C3.33317 11.7655 4.03555 13.4612 5.28579 14.7114C6.53603 15.9617 8.23173 16.6641 9.99984 16.6641ZM7.08317 11.6641H11.6665C11.777 11.6641 11.883 11.6202 11.9611 11.542C12.0393 11.4639 12.0832 11.3579 12.0832 11.2474C12.0832 11.1369 12.0393 11.0309 11.9611 10.9528C11.883 10.8746 11.777 10.8307 11.6665 10.8307H8.33317C7.78064 10.8307 7.25073 10.6112 6.86003 10.2205C6.46933 9.82983 6.24984 9.29993 6.24984 8.7474C6.24984 8.19486 6.46933 7.66496 6.86003 7.27426C7.25073 6.88356 7.78064 6.66406 8.33317 6.66406H9.1665V4.9974H10.8332V6.66406H12.9165V8.33073H8.33317C8.22266 8.33073 8.11668 8.37463 8.03854 8.45277C7.9604 8.53091 7.9165 8.63689 7.9165 8.7474C7.9165 8.8579 7.9604 8.96388 8.03854 9.04202C8.11668 9.12016 8.22266 9.16406 8.33317 9.16406H11.6665C12.219 9.16406 12.7489 9.38356 13.1396 9.77426C13.5303 10.165 13.7498 10.6949 13.7498 11.2474C13.7498 11.7999 13.5303 12.3298 13.1396 12.7205C12.7489 13.1112 12.219 13.3307 11.6665 13.3307H10.8332V14.9974H9.1665V13.3307H7.08317V11.6641Z" fill="#2384C1" fill-opacity="0.2"/>
</svg>
