<svg width="16" height="16" viewBox="0 0 16 16" fill="none" xmlns="http://www.w3.org/2000/svg">
<path d="M13.3333 14.6668H2.66667C2.48986 14.6668 2.32029 14.5966 2.19526 14.4716C2.07024 14.3465 2 14.177 2 14.0002V2.00016C2 1.82335 2.07024 1.65378 2.19526 1.52876C2.32029 1.40373 2.48986 1.3335 2.66667 1.3335H13.3333C13.5101 1.3335 13.6797 1.40373 13.8047 1.52876C13.9298 1.65378 14 1.82335 14 2.00016V14.0002C14 14.177 13.9298 14.3465 13.8047 14.4716C13.6797 14.5966 13.5101 14.6668 13.3333 14.6668ZM12.6667 13.3335V2.66683H3.33333V13.3335H12.6667ZM6 4.00016V5.3335C6 5.86393 6.21071 6.37264 6.58579 6.74771C6.96086 7.12278 7.46957 7.3335 8 7.3335C8.53043 7.3335 9.03914 7.12278 9.41421 6.74771C9.78929 6.37264 10 5.86393 10 5.3335V4.00016H11.3333V5.3335C11.3333 6.21755 10.9821 7.0654 10.357 7.69052C9.7319 8.31564 8.88406 8.66683 8 8.66683C7.11595 8.66683 6.2681 8.31564 5.64298 7.69052C5.01786 7.0654 4.66667 6.21755 4.66667 5.3335V4.00016H6Z" fill="#2F2B43"/>
</svg>
