<svg width="25" height="24" viewBox="0 0 25 24" fill="none" xmlns="http://www.w3.org/2000/svg">
<path d="M6.67298 18.7825H3.70731C3.44513 18.7825 3.19368 18.6784 3.00829 18.493C2.8229 18.3076 2.71875 18.0562 2.71875 17.794V7.9084C2.71875 7.64622 2.8229 7.39478 3.00829 7.20939C3.19368 7.02399 3.44513 6.91984 3.70731 6.91984H6.67298V2.96561C6.67298 2.70343 6.77714 2.45198 6.96253 2.26659C7.14792 2.0812 7.39936 1.97705 7.66154 1.97705H17.5471C17.8093 1.97705 18.0608 2.0812 18.2461 2.26659C18.4315 2.45198 18.5357 2.70343 18.5357 2.96561V6.91984H21.5014C21.7635 6.91984 22.015 7.02399 22.2004 7.20939C22.3858 7.39478 22.4899 7.64622 22.4899 7.9084V17.794C22.4899 18.0562 22.3858 18.3076 22.2004 18.493C22.015 18.6784 21.7635 18.7825 21.5014 18.7825H18.5357V20.7597C18.5357 21.0218 18.4315 21.2733 18.2461 21.4587C18.0608 21.6441 17.8093 21.7482 17.5471 21.7482H7.66154C7.39936 21.7482 7.14792 21.6441 6.96253 21.4587C6.77714 21.2733 6.67298 21.0218 6.67298 20.7597V18.7825ZM6.67298 16.8054V15.8169C6.67298 15.5547 6.77714 15.3032 6.96253 15.1179C7.14792 14.9325 7.39936 14.8283 7.66154 14.8283H17.5471C17.8093 14.8283 18.0608 14.9325 18.2461 15.1179C18.4315 15.3032 18.5357 15.5547 18.5357 15.8169V16.8054H20.5128V8.89696H4.69587V16.8054H6.67298ZM8.6501 3.95417V6.91984H16.5586V3.95417H8.6501ZM8.6501 16.8054V19.7711H16.5586V16.8054H8.6501ZM5.68443 9.88552H8.6501V11.8626H5.68443V9.88552Z" fill="#2F2B43"/>
</svg>
