<svg width="16" height="16" viewBox="0 0 16 16" fill="none" xmlns="http://www.w3.org/2000/svg">
<path d="M12.6663 14.0001H3.33301V14.6668C3.33301 14.8436 3.26277 15.0132 3.13775 15.1382C3.01272 15.2632 2.84315 15.3334 2.66634 15.3334H1.99967C1.82286 15.3334 1.65329 15.2632 1.52827 15.1382C1.40325 15.0132 1.33301 14.8436 1.33301 14.6668V8.00012L2.94434 5.31412C3.0628 5.11668 3.23038 4.95329 3.43074 4.83984C3.6311 4.7264 3.85743 4.66678 4.08767 4.66678H11.9117C12.1419 4.66678 12.3682 4.7264 12.5686 4.83984C12.769 4.95329 12.9365 5.11668 13.055 5.31412L14.6663 8.00012V14.6668C14.6663 14.8436 14.5961 15.0132 14.4711 15.1382C14.3461 15.2632 14.1765 15.3334 13.9997 15.3334H13.333C13.1562 15.3334 12.9866 15.2632 12.8616 15.1382C12.7366 15.0132 12.6663 14.8436 12.6663 14.6668V14.0001ZM13.333 9.33345H2.66634V12.6668H13.333V9.33345ZM2.88767 8.00012H13.1117L11.9117 6.00012H4.08767L2.88767 8.00012ZM3.62634 2.29345L4.33301 1.58545L5.03967 2.29212C5.17956 2.43196 5.27483 2.61014 5.31344 2.80413C5.35205 2.99812 5.33226 3.1992 5.25658 3.38194C5.1809 3.56469 5.05273 3.72088 4.88828 3.83078C4.72382 3.94067 4.53047 3.99933 4.33267 3.99933C4.13488 3.99933 3.94153 3.94067 3.77707 3.83078C3.61262 3.72088 3.48444 3.56469 3.40877 3.38194C3.33309 3.1992 3.3133 2.99812 3.35191 2.80413C3.39052 2.61014 3.48579 2.43196 3.62567 2.29212L3.62634 2.29345ZM7.29301 2.29345L7.99967 1.58545L8.70634 2.29212C8.84622 2.43196 8.94149 2.61014 8.9801 2.80413C9.01871 2.99812 8.99893 3.1992 8.92325 3.38194C8.84757 3.56469 8.7194 3.72088 8.55494 3.83078C8.39049 3.94067 8.19714 3.99933 7.99934 3.99933C7.80155 3.99933 7.6082 3.94067 7.44374 3.83078C7.27928 3.72088 7.15111 3.56469 7.07543 3.38194C6.99975 3.1992 6.97997 2.99812 7.01858 2.80413C7.05719 2.61014 7.15246 2.43196 7.29234 2.29212L7.29301 2.29345ZM10.9597 2.29345L11.6663 1.58545L12.373 2.29212C12.5129 2.43196 12.6082 2.61014 12.6468 2.80413C12.6854 2.99812 12.6656 3.1992 12.5899 3.38194C12.5142 3.56469 12.3861 3.72088 12.2216 3.83078C12.0572 3.94067 11.8638 3.99933 11.666 3.99933C11.4682 3.99933 11.2749 3.94067 11.1104 3.83078C10.946 3.72088 10.8178 3.56469 10.7421 3.38194C10.6664 3.1992 10.6466 2.99812 10.6852 2.80413C10.7239 2.61014 10.8191 2.43196 10.959 2.29212L10.9597 2.29345ZM4.33301 12.0001C4.06779 12.0001 3.81344 11.8948 3.6259 11.7072C3.43836 11.5197 3.33301 11.2653 3.33301 11.0001C3.33301 10.7349 3.43836 10.4805 3.6259 10.293C3.81344 10.1055 4.06779 10.0001 4.33301 10.0001C4.59822 10.0001 4.85258 10.1055 5.04011 10.293C5.22765 10.4805 5.33301 10.7349 5.33301 11.0001C5.33301 11.2653 5.22765 11.5197 5.04011 11.7072C4.85258 11.8948 4.59822 12.0001 4.33301 12.0001ZM11.6663 12.0001C11.4011 12.0001 11.1468 11.8948 10.9592 11.7072C10.7717 11.5197 10.6663 11.2653 10.6663 11.0001C10.6663 10.7349 10.7717 10.4805 10.9592 10.293C11.1468 10.1055 11.4011 10.0001 11.6663 10.0001C11.9316 10.0001 12.1859 10.1055 12.3734 10.293C12.561 10.4805 12.6663 10.7349 12.6663 11.0001C12.6663 11.2653 12.561 11.5197 12.3734 11.7072C12.1859 11.8948 11.9316 12.0001 11.6663 12.0001Z" fill="#2F2B43"/>
</svg>
