<svg width="182" height="61" viewBox="0 0 182 61" fill="none" xmlns="http://www.w3.org/2000/svg">
<g clip-path="url(#clip0_50014_19041)">
<path d="M62.0403 25.6881C61.9348 22.347 61.2984 19.0439 60.1549 15.9027C58.2881 10.8196 55.1068 6.32241 50.9352 2.86972C49.8079 1.93298 48.6171 1.07544 47.3713 0.303251C46.7859 -0.0580255 46.1146 -0.25663 45.4269 -0.272083C44.7391 -0.287536 44.0597 -0.119266 43.4586 0.215352C42.8575 0.54997 42.3566 1.03883 42.0074 1.63156C41.6582 2.22428 41.4734 2.89941 41.4721 3.58735C41.4715 4.24066 41.639 4.88314 41.9585 5.45298C42.2781 6.02281 42.7389 6.50082 43.2966 6.84104C44.2477 7.42908 45.1561 8.08347 46.0151 8.79934C50.3979 12.4305 53.2796 17.5569 54.1037 23.1886C54.2315 24.0368 54.3107 24.8917 54.3409 25.7489C54.5473 31.4359 52.6481 36.9991 49.0073 41.3728L46.5381 44.3345C46.2199 44.7407 45.8233 45.0789 45.372 45.3291C44.9207 45.5793 44.4237 45.7363 43.9106 45.7908C43.3975 45.8454 42.8787 45.7964 42.3848 45.6468C41.891 45.4972 41.4322 45.25 41.0356 44.9198C40.6391 44.5896 40.3128 44.1832 40.0762 43.7246C39.8396 43.266 39.6975 42.7646 39.6582 42.2501C39.619 41.7356 39.6834 41.2184 39.8477 40.7292C40.0119 40.24 40.2727 39.7888 40.6145 39.4023L43.0777 36.4405C44.8094 34.3664 45.9632 31.8721 46.4226 29.2094C46.824 26.8716 46.6845 24.4729 46.0151 22.1973C45.9178 21.8688 45.8083 21.5465 45.6867 21.2303C44.7547 18.6921 43.1661 16.4466 41.0828 14.7229C39.0072 12.9863 36.5076 11.832 33.8396 11.378C32.7169 11.1888 31.5769 11.1236 30.4399 11.1834C30.4261 8.81085 29.6824 6.50009 28.3097 4.56497C26.937 2.62984 25.0019 1.16416 22.7673 0.367023C20.5327 -0.43011 18.1068 -0.520042 15.8193 0.109413C13.5318 0.738868 11.4934 2.05721 9.98119 3.88536L7.54852 6.84713C4.07456 11.0004 1.76592 16.0017 0.858689 21.3397C-0.0458761 26.6772 0.455076 32.1583 2.31222 37.2433C4.17966 42.3245 7.35852 46.8211 11.526 50.2763C12.6542 51.2145 13.8472 52.0721 15.0959 52.8428C15.9616 53.342 16.9873 53.4857 17.9568 53.2434C18.9263 53.0012 19.7639 52.392 20.293 51.5443C20.8222 50.6966 21.0015 49.6765 20.7933 48.6991C20.585 47.7217 20.0054 46.8634 19.1767 46.305C18.2252 45.7175 17.3168 45.0631 16.4582 44.3467C12.0799 40.7127 9.20092 35.5873 8.37566 29.9575C8.24786 29.1092 8.16866 28.2544 8.13846 27.3971C7.91868 21.7135 9.80256 16.1485 13.4295 11.7672L15.8987 8.80543C16.2169 8.39922 16.6134 8.06102 17.0648 7.81087C17.5161 7.56071 18.013 7.40369 18.5261 7.34912C19.0393 7.29454 19.5581 7.34352 20.0519 7.49314C20.5458 7.64277 21.0046 7.89 21.4011 8.22018C21.7977 8.55037 22.1239 8.95678 22.3605 9.41536C22.5971 9.87394 22.7393 10.3754 22.7785 10.8899C22.8178 11.4044 22.7534 11.9216 22.5891 12.4107C22.4248 12.8999 22.1641 13.3511 21.8222 13.7377L19.3895 16.6994C17.6476 18.7699 16.4851 21.2649 16.0203 23.9305C16.0203 24.0096 16.0203 24.0887 15.9838 24.1677C15.5802 26.7661 15.846 29.4244 16.7562 31.8914C17.6932 34.4285 19.2811 36.6745 21.3606 38.4038C23.4401 40.1331 25.9379 41.285 28.6033 41.7437C29.7283 41.93 30.8701 41.9953 32.009 41.9383C32.0228 44.3109 32.7665 46.6216 34.1392 48.5568C35.5119 50.4919 37.447 51.9576 39.6817 52.7547C41.9163 53.5518 44.3421 53.6417 46.6297 53.0123C48.9172 52.3828 50.9555 51.0645 52.4678 49.2363L54.9004 46.2746C59.7095 40.5033 62.2424 33.1729 62.022 25.6638L62.0403 25.6881ZM31.2123 34.2694C29.6907 34.2694 28.2033 33.8182 26.9381 32.9728C25.673 32.1275 24.6869 30.9259 24.1046 29.5202C23.5223 28.1144 23.37 26.5675 23.6668 25.0752C23.9637 23.5828 24.6964 22.212 25.7723 21.1361C26.8482 20.0601 28.2191 19.3274 29.7114 19.0306C31.2038 18.7337 32.7506 18.8861 34.1564 19.4684C35.5622 20.0507 36.7637 21.0367 37.6091 22.3019C38.4544 23.567 38.9056 25.0545 38.9056 26.5761C38.9056 28.6165 38.0951 30.5733 36.6523 32.016C35.2095 33.4588 33.2527 34.2694 31.2123 34.2694Z" fill="#2A9FE8"/>
<path d="M92.7831 25.3371C85.7892 24.4674 84.1046 23.2754 84.1046 20.8914C84.1046 18.3979 86.4399 16.5491 91.0498 16.5491C95.6597 16.5491 99.0776 17.5283 103.791 20.2407L106.887 14.2746C102.208 11.17 96.6875 9.57973 91.0742 9.71941C83.168 9.71941 75.5051 13.5691 75.6146 21.0009C75.6693 27.2893 80.0603 30.166 89.9855 31.735C97.5815 32.8784 98.9925 34.0704 98.9925 36.5639C98.9925 39.0574 97.095 40.8211 91.8891 40.8211C86.4643 40.8211 81.9091 38.9236 78.0047 36.2659L74.751 41.6847C78.7588 45.3762 85.7588 47.5413 91.8891 47.5413C100.403 47.5413 107.616 43.6916 107.562 36.2659C107.483 29.0774 101.711 26.4744 92.7831 25.3371Z" fill="#051128"/>
<path d="M147.524 10.2109V17.0406H160.691V47.0902H168.932V17.0406H182.372V10.2109H147.524Z" fill="#051128"/>
<path d="M75.5598 56.4678C75.5656 56.6152 75.6035 56.7596 75.6707 56.8909C75.7379 57.0221 75.8329 57.1372 75.9491 57.2281C76.2086 57.4572 76.5457 57.579 76.8917 57.5686C77.2054 57.5875 77.5156 57.4949 77.7675 57.3071C77.9691 57.1441 78.1033 56.9123 78.1446 56.6564C78.1627 56.5231 78.1478 56.3873 78.1011 56.2611C78.0544 56.1349 77.9775 56.0221 77.877 55.9327C77.6543 55.7384 77.3832 55.6081 77.0924 55.5556L76.2897 55.3549C75.2801 55.0995 74.7753 54.5582 74.7753 53.7372C74.7725 53.4946 74.8259 53.2547 74.9314 53.0363C75.0369 52.8178 75.1917 52.6268 75.3835 52.4783C75.7796 52.1504 76.2803 51.9756 76.7944 51.9857C77.3194 51.9672 77.8319 52.1475 78.2297 52.4905C78.4156 52.6537 78.5628 52.8563 78.6606 53.0835C78.7584 53.3107 78.8044 53.5569 78.7953 53.8041H77.956C77.9604 53.6646 77.9331 53.5259 77.8762 53.3985C77.8193 53.271 77.7344 53.1581 77.6276 53.0682C77.3904 52.8774 77.0926 52.7782 76.7884 52.7884C76.4955 52.7845 76.2093 52.8763 75.9734 53.05C75.8652 53.1259 75.7771 53.2271 75.7167 53.3447C75.6563 53.4623 75.6254 53.5928 75.6267 53.725C75.6267 54.1568 75.9187 54.4426 76.5086 54.5886L77.3175 54.7893C77.8188 54.8876 78.2775 55.1382 78.6311 55.5069C78.7742 55.6721 78.8794 55.8665 78.9393 56.0767C78.9992 56.2868 79.0123 56.5075 78.9777 56.7233C78.954 56.9497 78.8853 57.169 78.7757 57.3685C78.666 57.568 78.5176 57.7436 78.3392 57.8849C77.9308 58.2045 77.422 58.3684 76.9039 58.3471C76.3354 58.3646 75.782 58.162 75.3591 57.7815C75.1683 57.6186 75.0151 57.4163 74.9101 57.1884C74.8051 56.9606 74.7508 56.7126 74.751 56.4618L75.5598 56.4678Z" fill="#051128"/>
<path d="M80.7722 54.0604V54.7173C80.9134 54.4763 81.1259 54.285 81.3803 54.1699C81.6445 54.0372 81.9361 53.9684 82.2317 53.9692C82.5094 53.9633 82.7854 54.0142 83.0426 54.1187C83.2999 54.2233 83.5331 54.3794 83.7278 54.5774C83.9324 54.7875 84.0918 55.0373 84.1964 55.3113C84.301 55.5853 84.3485 55.8778 84.336 56.1708C84.3474 56.4609 84.2994 56.7503 84.1948 57.0212C84.0902 57.2921 83.9313 57.5387 83.7278 57.7459C83.5333 57.9442 83.3002 58.1005 83.0428 58.2051C82.7855 58.3097 82.5094 58.3604 82.2317 58.3541C81.9334 58.3568 81.6382 58.2924 81.3681 58.1655C81.1122 58.0586 80.8985 57.8706 80.76 57.6304V60.3063H79.939V54.0604H80.7722ZM80.7722 56.183C80.7632 56.3703 80.7956 56.5574 80.867 56.7308C80.9385 56.9042 81.0473 57.0598 81.1857 57.1864C81.4512 57.4244 81.7961 57.5546 82.1527 57.5513C82.3318 57.5558 82.5099 57.5248 82.6769 57.4601C82.844 57.3954 82.9965 57.2982 83.1258 57.1742C83.2539 57.0439 83.3541 56.8888 83.42 56.7183C83.4859 56.5478 83.5161 56.3656 83.5089 56.183C83.5165 55.9961 83.486 55.8096 83.419 55.635C83.3521 55.4604 83.2502 55.3012 83.1197 55.1673C82.9948 55.0379 82.8443 54.9359 82.6778 54.8678C82.5113 54.7998 82.3325 54.7672 82.1527 54.772C81.9723 54.7682 81.7929 54.8 81.6248 54.8658C81.4568 54.9315 81.3034 55.0299 81.1735 55.1552C81.0414 55.287 80.9381 55.4447 80.8701 55.6185C80.8021 55.7922 80.7708 55.9782 80.7782 56.1647L80.7722 56.183Z" fill="#051128"/>
<path d="M89.3051 56.1569C89.3051 56.315 89.3051 56.4245 89.3051 56.4793H85.8994C85.9353 56.805 86.0967 57.1039 86.3494 57.3124C86.6064 57.522 86.9302 57.6321 87.2617 57.6226C87.5093 57.6256 87.7538 57.5671 87.9732 57.4523C88.1794 57.3446 88.3504 57.1799 88.4659 56.9779L88.8247 57.1178L89.1714 57.2455C89.0049 57.5979 88.73 57.8878 88.3868 58.0727C88.0335 58.2685 87.6353 58.3691 87.2313 58.3646C86.948 58.3719 86.6662 58.3219 86.4028 58.2173C86.1393 58.1128 85.8999 57.956 85.6987 57.7564C85.4941 57.5462 85.3347 57.2965 85.2301 57.0225C85.1255 56.7485 85.078 56.456 85.0905 56.163C85.076 55.8758 85.1214 55.5888 85.2237 55.3201C85.3261 55.0514 85.4832 54.8069 85.685 54.6022C85.8869 54.3974 86.1292 54.2369 86.3964 54.1308C86.6636 54.0247 86.95 53.9753 87.2374 53.9858C87.5161 53.979 87.7931 54.0294 88.0515 54.134C88.3099 54.2387 88.5441 54.3952 88.7395 54.5939C89.1268 55.02 89.33 55.5817 89.3051 56.1569ZM85.8811 55.8407H88.4963C88.4729 55.5222 88.3252 55.2258 88.0851 55.0153C87.845 54.8048 87.5318 54.6971 87.213 54.7156C86.8883 54.7071 86.5713 54.8149 86.319 55.0196C86.081 55.2232 85.9307 55.5108 85.8994 55.8224L85.8811 55.8407Z" fill="#051128"/>
<path d="M94.2187 56.1683C94.2187 56.3264 94.2187 56.4359 94.2187 56.4907H90.8069C90.8427 56.8164 91.0042 57.1153 91.2569 57.3238C91.5139 57.5334 91.8377 57.6435 92.1692 57.634C92.4168 57.637 92.6613 57.5785 92.8807 57.4637C93.0869 57.356 93.2579 57.1913 93.3733 56.9893L93.7322 57.1292L94.0727 57.2569C93.9079 57.6084 93.6351 57.8982 93.2943 58.0841C92.9406 58.2791 92.5426 58.3797 92.1388 58.376C91.8555 58.3833 91.5736 58.3333 91.3102 58.2287C91.0468 58.1242 90.8073 57.9674 90.6062 57.7678C90.4004 57.5585 90.2402 57.3089 90.1355 57.0347C90.0309 56.7605 89.9841 56.4676 89.998 56.1744C89.9843 55.8831 90.0313 55.5921 90.136 55.3199C90.2406 55.0477 90.4008 54.8002 90.6062 54.5931C90.8086 54.3952 91.0483 54.2395 91.3114 54.1351C91.5745 54.0307 91.8558 53.9797 92.1388 53.985C92.4174 53.9782 92.6945 54.0287 92.9529 54.1333C93.2113 54.2379 93.4455 54.3944 93.6409 54.5931C93.8363 54.8046 93.988 55.0527 94.0872 55.323C94.1863 55.5934 94.231 55.8806 94.2187 56.1683ZM90.7947 55.8521H93.4038C93.3786 55.5348 93.2301 55.2401 92.9902 55.031C92.7501 54.8259 92.4422 54.7175 92.1266 54.727C91.8019 54.7185 91.4848 54.8263 91.2326 55.031C90.9878 55.2315 90.8307 55.5195 90.7947 55.8338V55.8521Z" fill="#051128"/>
<path d="M98.4884 58.2626V57.6118C98.3478 57.8533 98.1351 58.0447 97.8802 58.1592C97.6104 58.2873 97.3154 58.3538 97.0167 58.3538C96.7372 58.3596 96.4594 58.3087 96.2002 58.2042C95.941 58.0997 95.7056 57.9437 95.5084 57.7456C95.1152 57.3116 94.8975 56.7469 94.8975 56.1613C94.8975 55.5757 95.1152 55.0111 95.5084 54.5771C95.7047 54.3795 95.939 54.2237 96.1972 54.1192C96.4554 54.0147 96.7321 53.9636 97.0106 53.9689C97.3143 53.9652 97.6151 54.0274 97.8924 54.1514C98.1447 54.264 98.3568 54.4506 98.5005 54.6865V51.7734H99.3216V58.2626H98.4884ZM98.0749 57.1679C98.2116 57.0364 98.3187 56.8772 98.389 56.701C98.4593 56.5248 98.4911 56.3356 98.4823 56.1461C98.4916 55.9567 98.4581 55.7676 98.3844 55.5929C98.3107 55.4181 98.1987 55.2622 98.0566 55.1366C97.7911 54.8986 97.4462 54.7684 97.0896 54.7717C96.9085 54.7675 96.7285 54.8002 96.5605 54.8679C96.3925 54.9357 96.2401 55.037 96.1126 55.1656C95.9851 55.2943 95.8851 55.4476 95.8189 55.6162C95.7526 55.7848 95.7215 55.9651 95.7273 56.1461C95.722 56.3323 95.7543 56.5177 95.8222 56.6911C95.8901 56.8646 95.9923 57.0226 96.1226 57.1557C96.2475 57.2851 96.398 57.3871 96.5645 57.4551C96.731 57.5232 96.9098 57.5559 97.0896 57.551C97.4514 57.5546 97.8004 57.4171 98.0627 57.1679H98.0749Z" fill="#051128"/>
<path d="M106.096 56.6828H103.469L102.861 58.258H101.967L104.326 52.0547H105.227L107.574 58.258H106.698L106.096 56.6828ZM103.755 55.9287H105.804L104.783 53.1737L103.755 55.9287Z" fill="#051128"/>
<path d="M113.875 51.7707V52.5552H113.419C112.884 52.5552 112.622 52.914 112.634 53.6317V54.0574H113.607V54.7507H112.634V58.2598H111.807V54.7507H109.374V58.2598H108.541V54.7507H107.732V54.0574H108.541V53.6317C108.514 53.143 108.656 52.6597 108.943 52.2633C109.093 52.0916 109.281 51.9575 109.492 51.8719C109.703 51.7863 109.932 51.7517 110.159 51.7707H110.621V52.5552H110.159C109.624 52.5552 109.368 52.914 109.381 53.6317V54.0574H111.813V53.6317C111.787 53.144 111.926 52.6618 112.209 52.2633C112.359 52.0927 112.548 51.9594 112.759 51.8739C112.97 51.7884 113.198 51.7531 113.425 51.7707H113.875Z" fill="#051128"/>
<path d="M117.828 57.7318C117.405 58.1281 116.847 58.3487 116.268 58.3487C115.688 58.3487 115.13 58.1281 114.708 57.7318C114.3 57.3051 114.072 56.7377 114.072 56.1475C114.072 55.5573 114.3 54.9898 114.708 54.5632C115.136 54.1756 115.693 53.9609 116.271 53.9609C116.848 53.9609 117.405 54.1756 117.834 54.5632C118.04 54.7684 118.2 55.0147 118.305 55.2861C118.41 55.5574 118.457 55.8478 118.442 56.1384C118.457 56.4322 118.41 56.7259 118.304 57.0004C118.198 57.2749 118.036 57.5241 117.828 57.7318ZM115.279 57.1662C115.475 57.3645 115.727 57.4991 116.001 57.5523C116.274 57.6056 116.558 57.5751 116.814 57.4647C117.07 57.3544 117.287 57.1694 117.436 56.9338C117.586 56.6983 117.661 56.4232 117.651 56.1444C117.659 55.9592 117.627 55.7744 117.558 55.6024C117.489 55.4304 117.384 55.2751 117.25 55.1471C116.979 54.9047 116.628 54.7707 116.265 54.7707C115.901 54.7707 115.55 54.9047 115.279 55.1471C115.145 55.2751 115.04 55.4304 114.971 55.6024C114.902 55.7744 114.87 55.9592 114.878 56.1444C114.87 56.3333 114.902 56.5216 114.971 56.6975C115.04 56.8734 115.145 57.033 115.279 57.1662Z" fill="#051128"/>
<path d="M120.285 56.7331V58.2657H119.47V54.0633H120.285V55.006C120.492 54.3187 120.893 53.9721 121.459 53.9721C121.713 53.9538 121.967 54.0109 122.189 54.1362L122.061 54.8965C121.87 54.8074 121.663 54.7598 121.453 54.7566C121.272 54.7522 121.093 54.8012 120.94 54.8975C120.786 54.9937 120.664 55.1329 120.589 55.2979C120.372 55.7443 120.268 56.2371 120.285 56.7331Z" fill="#051128"/>
<path d="M126.148 58.2626V57.6118C126.005 57.8513 125.793 58.0421 125.539 58.1592C125.27 58.2879 124.975 58.3544 124.676 58.3538C124.396 58.3596 124.119 58.3087 123.859 58.2042C123.6 58.0997 123.365 57.9437 123.168 57.7456C122.774 57.3116 122.557 56.7469 122.557 56.1613C122.557 55.5757 122.774 55.0111 123.168 54.5771C123.365 54.379 123.6 54.223 123.859 54.1185C124.119 54.014 124.396 53.9631 124.676 53.9689C124.977 53.9659 125.276 54.0281 125.552 54.1514C125.803 54.2649 126.015 54.4513 126.16 54.6865V51.7734H126.975V58.2626H126.148ZM125.728 57.1679C125.865 57.0364 125.972 56.8772 126.042 56.701C126.112 56.5248 126.144 56.3356 126.135 56.1461C126.144 55.9573 126.111 55.769 126.038 55.5944C125.966 55.4199 125.856 55.2636 125.716 55.1366C125.447 54.8997 125.101 54.7698 124.743 54.7717C124.562 54.7675 124.382 54.8002 124.214 54.8679C124.046 54.9357 123.893 55.037 123.766 55.1656C123.638 55.2943 123.538 55.4476 123.472 55.6162C123.406 55.7848 123.375 55.9651 123.38 56.1461C123.375 56.3323 123.407 56.5177 123.475 56.6911C123.543 56.8646 123.645 57.0226 123.776 57.1557C123.901 57.2842 124.052 57.3856 124.218 57.4536C124.385 57.5216 124.563 57.5548 124.743 57.551C125.109 57.5578 125.463 57.4201 125.728 57.1679Z" fill="#051128"/>
<path d="M131.573 58.2627V57.612C131.431 57.8529 131.219 58.0442 130.965 58.1593C130.695 58.2887 130.4 58.3552 130.101 58.3539C129.822 58.3594 129.544 58.3084 129.285 58.2038C129.026 58.0993 128.79 57.9435 128.593 57.7457C128.194 57.3143 127.973 56.7487 127.973 56.1615C127.973 55.5743 128.194 55.0086 128.593 54.5772C128.791 54.38 129.026 54.2246 129.285 54.1201C129.544 54.0156 129.822 53.9643 130.101 53.9691C130.401 53.9664 130.698 54.0308 130.971 54.1576C131.223 54.2672 131.435 54.452 131.579 54.6867V54.0785H132.388V58.2809L131.573 58.2627ZM131.573 56.1463C131.581 55.9575 131.548 55.7691 131.476 55.5946C131.403 55.4201 131.293 55.2637 131.153 55.1367C130.885 54.8988 130.538 54.7688 130.18 54.7718C129.998 54.765 129.816 54.7958 129.647 54.8626C129.477 54.9293 129.323 55.0304 129.195 55.1595C129.066 55.2886 128.966 55.443 128.9 55.6128C128.834 55.7826 128.804 55.9642 128.812 56.1463C128.806 56.3325 128.839 56.5178 128.907 56.6913C128.974 56.8647 129.077 57.0227 129.207 57.1558C129.334 57.284 129.486 57.3851 129.653 57.453C129.82 57.5209 130 57.5543 130.18 57.5512C130.547 57.5585 130.902 57.4233 131.171 57.1741C131.302 57.0417 131.404 56.8837 131.471 56.71C131.538 56.5363 131.569 56.3505 131.561 56.1645L131.573 56.1463Z" fill="#051128"/>
<path d="M134.479 57.6118V58.2626H133.658V51.7734H134.479V54.6865C134.623 54.4506 134.835 54.264 135.087 54.1514C135.482 53.9791 135.919 53.9271 136.343 54.0017C136.767 54.0764 137.159 54.2744 137.471 54.571C137.868 55.0031 138.089 55.5685 138.089 56.1553C138.089 56.742 137.868 57.3075 137.471 57.7396C137.273 57.9378 137.037 58.0938 136.776 58.1983C136.516 58.3029 136.237 58.3537 135.957 58.3477C135.66 58.347 135.367 58.2806 135.1 58.1531C134.841 58.0424 134.624 57.853 134.479 57.6118ZM134.479 56.1461C134.471 56.3364 134.503 56.5263 134.573 56.7034C134.644 56.8805 134.75 57.0408 134.887 57.1739C135.156 57.4237 135.511 57.559 135.878 57.551C136.058 57.5548 136.236 57.5216 136.402 57.4536C136.569 57.3856 136.719 57.2842 136.845 57.1557C136.975 57.0223 137.076 56.8641 137.143 56.6906C137.209 56.5171 137.241 56.3319 137.234 56.1461C137.242 55.9651 137.212 55.7846 137.147 55.6156C137.082 55.4466 136.982 55.2929 136.855 55.1639C136.728 55.035 136.575 54.9336 136.407 54.8662C136.239 54.7987 136.059 54.7665 135.878 54.7717C135.519 54.7675 135.172 54.8977 134.905 55.1366C134.763 55.2656 134.651 55.4249 134.578 55.6028C134.506 55.7807 134.474 55.9726 134.485 56.1644L134.479 56.1461Z" fill="#051128"/>
<path d="M139.084 52.8871C139.028 52.8415 138.984 52.7838 138.955 52.7184C138.925 52.653 138.911 52.5818 138.913 52.5101C138.912 52.4386 138.927 52.3677 138.956 52.3025C138.986 52.2374 139.029 52.1795 139.084 52.133C139.194 52.0371 139.336 51.9844 139.482 51.9844C139.628 51.9844 139.77 52.0371 139.88 52.133C139.935 52.1795 139.978 52.2374 140.008 52.3025C140.037 52.3677 140.052 52.4386 140.051 52.5101C140.053 52.5818 140.039 52.653 140.009 52.7184C139.98 52.7838 139.936 52.8415 139.88 52.8871C139.77 52.983 139.628 53.0357 139.482 53.0357C139.336 53.0357 139.194 52.983 139.084 52.8871ZM139.886 58.2633V54.0609H139.078V58.2633H139.886Z" fill="#051128"/>
<path d="M141.163 51.7734H141.984V58.2626H141.163V51.7734Z" fill="#051128"/>
<path d="M143.268 52.8871C143.213 52.8406 143.17 52.7828 143.14 52.7176C143.111 52.6524 143.096 52.5816 143.097 52.5101C143.098 52.4388 143.113 52.3685 143.143 52.3035C143.172 52.2386 143.214 52.1805 143.268 52.133C143.378 52.0371 143.52 51.9844 143.666 51.9844C143.812 51.9844 143.954 52.0371 144.064 52.133C144.119 52.1795 144.162 52.2374 144.191 52.3025C144.221 52.3677 144.236 52.4386 144.234 52.5101C144.237 52.5818 144.223 52.653 144.193 52.7184C144.164 52.7838 144.12 52.8415 144.064 52.8871C143.954 52.983 143.812 53.0357 143.666 53.0357C143.52 53.0357 143.378 52.983 143.268 52.8871ZM144.07 58.2633V54.0609H143.261V58.2633H144.07Z" fill="#051128"/>
<path d="M146.485 54.0561H147.373V54.7494H146.485V58.2585H145.664V54.7494H144.892V54.0561H145.646V52.4688H146.467L146.485 54.0561Z" fill="#051128"/>
<path d="M149.343 60.3006H148.492L149.374 58.1294L147.689 54.0547H148.54L149.799 57.0955L151.058 54.0547H151.928L149.343 60.3006Z" fill="#051128"/>
<path d="M154.014 52.0547H158.624V52.8514H156.744V58.258H155.899V52.8514H154.014V52.0547Z" fill="#051128"/>
<path d="M159.487 56.7331V58.2657H158.672V54.0633H159.487V55.006C159.694 54.3187 160.095 53.9721 160.661 53.9721C160.915 53.9538 161.169 54.0109 161.391 54.1362L161.263 54.8965C161.073 54.8074 160.865 54.7598 160.655 54.7566C160.474 54.7522 160.295 54.8012 160.142 54.8975C159.988 54.9937 159.866 55.1329 159.791 55.2979C159.574 55.7443 159.47 56.2371 159.487 56.7331Z" fill="#051128"/>
<path d="M164.997 56.3232V54.0547H165.812V58.2571H164.997V57.649C164.877 57.8842 164.683 58.0727 164.443 58.1842C164.211 58.3076 163.952 58.3723 163.689 58.3727C163.463 58.3883 163.236 58.3526 163.026 58.2684C162.815 58.1842 162.626 58.0535 162.473 57.8862C162.168 57.4936 162.02 57.0013 162.059 56.5056V54.073H162.874V56.4448C162.858 56.7384 162.944 57.0285 163.118 57.2658C163.199 57.3647 163.303 57.4432 163.42 57.4949C163.537 57.5467 163.665 57.5703 163.793 57.5638C164.102 57.5757 164.404 57.4691 164.638 57.2658C164.766 57.1466 164.865 56.9996 164.927 56.8362C164.989 56.6728 165.013 56.4973 164.997 56.3232Z" fill="#051128"/>
<path d="M168.044 56.4084C167.706 56.3375 167.397 56.1682 167.156 55.9218C167.055 55.8006 166.982 55.659 166.941 55.5068C166.9 55.3546 166.893 55.1954 166.919 55.04C166.937 54.886 166.988 54.7377 167.069 54.6054C167.15 54.4731 167.258 54.3599 167.387 54.2737C167.677 54.0695 168.024 53.963 168.378 53.9696C168.732 53.9581 169.079 54.0605 169.37 54.2615C169.51 54.3657 169.625 54.5002 169.706 54.655C169.787 54.8098 169.832 54.9809 169.838 55.1556H169.054C169.044 55.0856 169.019 55.0184 168.981 54.9587C168.944 54.8989 168.894 54.8479 168.835 54.8089C168.705 54.7232 168.552 54.6787 168.397 54.6812C168.252 54.6792 168.11 54.7148 167.983 54.7845C167.93 54.8126 167.883 54.8514 167.845 54.8985C167.807 54.9456 167.78 55 167.764 55.0582C167.724 55.166 167.724 55.2849 167.764 55.3927C167.82 55.4772 167.892 55.5494 167.977 55.6048C168.062 55.6603 168.157 55.6978 168.257 55.7151L168.865 55.8671C169.165 55.8988 169.442 56.0408 169.644 56.2655C169.845 56.4903 169.955 56.7818 169.954 57.0834C169.957 57.2623 169.915 57.439 169.834 57.5981C169.752 57.7572 169.632 57.8938 169.485 57.9957C169.146 58.2335 168.738 58.3551 168.324 58.3423C167.935 58.345 167.557 58.214 167.253 57.9713C167.1 57.8581 166.976 57.7105 166.89 57.5404C166.805 57.3703 166.761 57.1826 166.761 56.9922H167.509C167.521 57.0935 167.559 57.19 167.618 57.2729C167.678 57.3558 167.757 57.4224 167.849 57.4666C168.051 57.5855 168.285 57.6367 168.518 57.6125C168.685 57.6069 168.845 57.5471 168.974 57.4422C169.029 57.3953 169.074 57.3377 169.105 57.2728C169.136 57.2079 169.154 57.1372 169.157 57.0652C169.163 56.9999 169.152 56.9341 169.127 56.8737C169.102 56.8133 169.062 56.76 169.011 56.7185C168.887 56.6285 168.747 56.5644 168.597 56.53L168.044 56.4084Z" fill="#051128"/>
<path d="M172.089 54.0561H172.977V54.7494H172.089V58.2585H171.268V54.7494H170.514V54.0561H171.268V52.4688H172.089V54.0561Z" fill="#051128"/>
<path d="M136.243 13.997C135.734 12.7356 134.86 11.655 133.732 10.8941C132.605 10.1331 131.276 9.72656 129.915 9.72656C128.555 9.72656 127.226 10.1331 126.098 10.8941C124.971 11.655 124.096 12.7356 123.587 13.997L110.299 47.0874H119.519L122.006 40.0874H137.818L140.294 47.0874H149.513L136.243 13.997ZM124.42 33.3185L129.943 17.7859L135.416 33.3185H124.42Z" fill="#051128"/>
</g>
<defs>
<clipPath id="clip0_50014_19041">
<rect width="182" height="60.5795" fill="white"/>
</clipPath>
</defs>
</svg>
