<svg width="16" height="16" viewBox="0 0 16 16" fill="none" xmlns="http://www.w3.org/2000/svg">
<path d="M1.47583 9.37383C1.2841 8.46831 1.2841 7.53268 1.47583 6.62716C2.21583 6.71383 2.86249 6.46916 3.07316 5.95983C3.28449 5.44983 3.00116 4.81983 2.41583 4.35783C2.92052 3.58204 3.58204 2.92052 4.35783 2.41583C4.81916 3.00049 5.44983 3.28449 5.95983 3.07316C6.46983 2.86183 6.71449 2.21583 6.62716 1.47583C7.53268 1.2841 8.46831 1.2841 9.37383 1.47583C9.28716 2.21583 9.53183 2.86249 10.0412 3.07316C10.5512 3.28449 11.1812 3.00116 11.6432 2.41583C12.4189 2.92052 13.0805 3.58204 13.5852 4.35783C13.0005 4.81916 12.7165 5.44983 12.9278 5.95983C13.1392 6.46983 13.7852 6.71449 14.5252 6.62716C14.7169 7.53268 14.7169 8.46831 14.5252 9.37383C13.7852 9.28716 13.1385 9.53183 12.9278 10.0412C12.7165 10.5512 12.9998 11.1812 13.5852 11.6432C13.0805 12.4189 12.4189 13.0805 11.6432 13.5852C11.1818 13.0005 10.5512 12.7165 10.0412 12.9278C9.53116 13.1392 9.28649 13.7852 9.37383 14.5252C8.46831 14.7169 7.53268 14.7169 6.62716 14.5252C6.71383 13.7852 6.46916 13.1385 5.95983 12.9278C5.44983 12.7165 4.81983 12.9998 4.35783 13.5852C3.58204 13.0805 2.92052 12.4189 2.41583 11.6432C3.00049 11.1818 3.28449 10.5512 3.07316 10.0412C2.86183 9.53116 2.21583 9.28649 1.47583 9.37383ZM2.66716 8.14049C3.40049 8.34383 4.00516 8.80849 4.30516 9.53116C4.60449 10.2545 4.50516 11.0112 4.13049 11.6725C4.19449 11.7405 4.26049 11.8065 4.32849 11.8705C4.99049 11.4958 5.74649 11.3972 6.46983 11.6958C7.19249 11.9958 7.65716 12.6005 7.86049 13.3338C7.95383 13.3365 8.04716 13.3365 8.14049 13.3338C8.34383 12.6005 8.80849 11.9958 9.53116 11.6958C10.2545 11.3965 11.0112 11.4958 11.6725 11.8705C11.7405 11.8065 11.8065 11.7405 11.8705 11.6725C11.4958 11.0105 11.3972 10.2545 11.6958 9.53116C11.9958 8.80849 12.6005 8.34383 13.3338 8.14049C13.3365 8.04716 13.3365 7.95383 13.3338 7.86049C12.6005 7.65716 11.9958 7.19249 11.6958 6.46983C11.3965 5.74649 11.4958 4.98983 11.8705 4.32849C11.8063 4.26076 11.7402 4.19473 11.6725 4.13049C11.0105 4.50516 10.2545 4.60383 9.53116 4.30516C8.80849 4.00516 8.34383 3.40049 8.14049 2.66716C8.04718 2.66469 7.95381 2.66469 7.86049 2.66716C7.65716 3.40049 7.19249 4.00516 6.46983 4.30516C5.74649 4.60449 4.98983 4.50516 4.32849 4.13049C4.26049 4.19449 4.19449 4.26049 4.13049 4.32849C4.50516 4.99049 4.60383 5.74649 4.30516 6.46983C4.00516 7.19249 3.40049 7.65716 2.66716 7.86049C2.66449 7.95383 2.66449 8.04716 2.66716 8.14049ZM8.00049 10.0005C7.47006 10.0005 6.96135 9.78978 6.58628 9.41471C6.21121 9.03963 6.00049 8.53093 6.00049 8.00049C6.00049 7.47006 6.21121 6.96135 6.58628 6.58628C6.96135 6.21121 7.47006 6.00049 8.00049 6.00049C8.53093 6.00049 9.03963 6.21121 9.41471 6.58628C9.78978 6.96135 10.0005 7.47006 10.0005 8.00049C10.0005 8.53093 9.78978 9.03963 9.41471 9.41471C9.03963 9.78978 8.53093 10.0005 8.00049 10.0005ZM8.00049 8.66716C8.1773 8.66716 8.34687 8.59692 8.4719 8.4719C8.59692 8.34687 8.66716 8.1773 8.66716 8.00049C8.66716 7.82368 8.59692 7.65411 8.4719 7.52909C8.34687 7.40406 8.1773 7.33383 8.00049 7.33383C7.82368 7.33383 7.65411 7.40406 7.52909 7.52909C7.40406 7.65411 7.33383 7.82368 7.33383 8.00049C7.33383 8.1773 7.40406 8.34687 7.52909 8.4719C7.65411 8.59692 7.82368 8.66716 8.00049 8.66716Z" fill="#2F2B43"/>
</svg>
