<svg width="28" height="28" viewBox="0 0 28 28" fill="none" xmlns="http://www.w3.org/2000/svg">
<rect x="0.352301" y="0.352301" width="26.569" height="26.569" rx="13.2845" fill="#ECF5FF"/>
<rect x="0.352301" y="0.352301" width="26.569" height="26.569" rx="13.2845" stroke="#F6F6F8" stroke-width="0.704601"/>
<path d="M8.30336 9.91717L6.14136 7.75583L7.08469 6.8125L9.24602 8.9745H19.4074C19.5113 8.97449 19.6137 8.99878 19.7066 9.04541C19.7995 9.09205 19.8801 9.15974 19.9422 9.2431C20.0042 9.32645 20.0459 9.42316 20.064 9.52549C20.082 9.62783 20.0758 9.73296 20.046 9.8325L18.446 15.1658C18.4049 15.3032 18.3205 15.4237 18.2054 15.5093C18.0904 15.5949 17.9508 15.6412 17.8074 15.6412H9.63669V16.9745H16.97V18.3078H8.97002C8.79321 18.3078 8.62364 18.2376 8.49862 18.1126C8.3736 17.9875 8.30336 17.818 8.30336 17.6412V9.91717ZM9.63669 10.3078V14.3078H17.3114L18.5114 10.3078H9.63669ZM9.30336 20.9745C9.03814 20.9745 8.78379 20.8691 8.59625 20.6816C8.40871 20.4941 8.30336 20.2397 8.30336 19.9745C8.30336 19.7093 8.40871 19.4549 8.59625 19.2674C8.78379 19.0799 9.03814 18.9745 9.30336 18.9745C9.56857 18.9745 9.82293 19.0799 10.0105 19.2674C10.198 19.4549 10.3034 19.7093 10.3034 19.9745C10.3034 20.2397 10.198 20.4941 10.0105 20.6816C9.82293 20.8691 9.56857 20.9745 9.30336 20.9745ZM17.3034 20.9745C17.0381 20.9745 16.7838 20.8691 16.5963 20.6816C16.4087 20.4941 16.3034 20.2397 16.3034 19.9745C16.3034 19.7093 16.4087 19.4549 16.5963 19.2674C16.7838 19.0799 17.0381 18.9745 17.3034 18.9745C17.5686 18.9745 17.8229 19.0799 18.0105 19.2674C18.198 19.4549 18.3034 19.7093 18.3034 19.9745C18.3034 20.2397 18.198 20.4941 18.0105 20.6816C17.8229 20.8691 17.5686 20.9745 17.3034 20.9745Z" fill="#1C6A9B"/>
</svg>
