<svg width="94" height="94" viewBox="0 0 94 94" fill="none" xmlns="http://www.w3.org/2000/svg">
<circle cx="46.631" cy="46.631" r="46.631" fill="#23A26D" fill-opacity="0.12"/>
<path d="M45.798 24.4258C33.5629 24.4258 23.5928 34.3959 23.5928 46.631C23.5928 58.8661 33.5629 68.8362 45.798 68.8362C58.0331 68.8362 68.0032 58.8661 68.0032 46.631C68.0032 34.3959 58.0331 24.4258 45.798 24.4258ZM56.4121 41.5238L43.8217 54.1142C43.5109 54.425 43.089 54.6027 42.6449 54.6027C42.2008 54.6027 41.7789 54.425 41.468 54.1142L35.1839 47.8301C34.54 47.1861 34.54 46.1203 35.1839 45.4763C35.8279 44.8324 36.8937 44.8324 37.5377 45.4763L42.6449 50.5835L54.0584 39.1701C54.7023 38.5261 55.7682 38.5261 56.4121 39.1701C57.0561 39.814 57.0561 40.8577 56.4121 41.5238Z" fill="#23A26D"/>
</svg>
