<svg width="28" height="28" viewBox="0 0 28 28" fill="none" xmlns="http://www.w3.org/2000/svg">
<rect x="0.352301" y="0.352301" width="26.569" height="26.569" rx="13.2845" fill="#ECF5FF"/>
<rect x="0.352301" y="0.352301" width="26.569" height="26.569" rx="13.2845" stroke="#F6F6F8" stroke-width="0.704601"/>
<path d="M8.30339 7.64062H18.9701C19.1469 7.64062 19.3164 7.71086 19.4415 7.83589C19.5665 7.96091 19.6367 8.13048 19.6367 8.30729V18.974C19.6367 19.1508 19.5665 19.3203 19.4415 19.4454C19.3164 19.5704 19.1469 19.6406 18.9701 19.6406H8.30339C8.12657 19.6406 7.95701 19.5704 7.83198 19.4454C7.70696 19.3203 7.63672 19.1508 7.63672 18.974V8.30729C7.63672 8.13048 7.70696 7.96091 7.83198 7.83589C7.95701 7.71086 8.12657 7.64062 8.30339 7.64062V7.64062ZM8.97005 8.97396V18.3073H18.3034V8.97396H8.97005ZM12.9721 16.3073L10.1434 13.4786L11.0861 12.536L12.9721 14.422L16.7427 10.6506L17.6861 11.5933L12.9721 16.3073Z" fill="#1C6A9B"/>
</svg>
