<svg width="28" height="28" viewBox="0 0 28 28" fill="none" xmlns="http://www.w3.org/2000/svg">
<rect x="0.352301" y="0.352301" width="26.569" height="26.569" rx="13.2845" fill="#ECF5FF"/>
<rect x="0.352301" y="0.352301" width="26.569" height="26.569" rx="13.2845" stroke="#F6F6F8" stroke-width="0.704601"/>
<g clip-path="url(#clip0_50057_15727)">
<path d="M17.3823 9.61669L18.3509 8.64802L19.2936 9.59069L18.3249 10.5594C19.2821 11.7575 19.7442 13.2766 19.6163 14.8048C19.4884 16.3329 18.7803 17.7541 17.6372 18.7765C16.4942 19.7989 15.0032 20.3447 13.4702 20.3021C11.9373 20.2594 10.4789 19.6314 9.39457 18.547C8.31021 17.4627 7.68221 16.0043 7.63953 14.4714C7.59686 12.9384 8.14275 11.4474 9.16511 10.3044C10.1875 9.16136 11.6087 8.45319 13.1368 8.3253C14.665 8.19741 16.1841 8.65951 17.3823 9.61669V9.61669ZM13.6369 18.9714C14.2498 18.9714 14.8566 18.8506 15.4228 18.6161C15.989 18.3816 16.5034 18.0379 16.9368 17.6045C17.3701 17.1712 17.7138 16.6567 17.9484 16.0905C18.1829 15.5244 18.3036 14.9175 18.3036 14.3047C18.3036 13.6919 18.1829 13.085 17.9484 12.5188C17.7138 11.9526 17.3701 11.4382 16.9368 11.0049C16.5034 10.5715 15.989 10.2278 15.4228 9.99325C14.8566 9.75873 14.2498 9.63802 13.6369 9.63802C12.3992 9.63802 11.2123 10.1297 10.3371 11.0049C9.46192 11.88 8.97025 13.067 8.97025 14.3047C8.97025 15.5424 9.46192 16.7293 10.3371 17.6045C11.2123 18.4797 12.3992 18.9714 13.6369 18.9714V18.9714ZM12.9703 10.9714H14.3036V14.9714H12.9703V10.9714ZM10.9703 6.30469H16.3036V7.63802H10.9703V6.30469Z" fill="#1C6A9B"/>
</g>
<defs>
<clipPath id="clip0_50057_15727">
<rect width="16" height="16" fill="white" transform="translate(5.63672 5.64062)"/>
</clipPath>
</defs>
</svg>
