<svg width="28" height="28" viewBox="0 0 28 28" fill="none" xmlns="http://www.w3.org/2000/svg">
<rect x="0.352301" y="0.352301" width="26.569" height="26.569" rx="13.2845" fill="#FEF2F2"/>
<rect x="0.352301" y="0.352301" width="26.569" height="26.569" rx="13.2845" stroke="#F6F6F8" stroke-width="0.704601"/>
<path d="M13.6366 6.97656C17.3166 6.97656 20.3033 9.96323 20.3033 13.6432C20.3033 17.3232 17.3166 20.3099 13.6366 20.3099C9.95664 20.3099 6.96997 17.3232 6.96997 13.6432C6.96997 9.96323 9.95664 6.97656 13.6366 6.97656ZM13.6366 18.9766C16.5833 18.9766 18.97 16.5899 18.97 13.6432C18.97 10.6966 16.5833 8.3099 13.6366 8.3099C10.69 8.3099 8.3033 10.6966 8.3033 13.6432C8.3033 16.5899 10.69 18.9766 13.6366 18.9766ZM15.994 10.3432L16.9366 11.2859L13.6366 14.5859L12.694 13.6432L15.994 10.3432V10.3432Z" fill="#CD3636"/>
</svg>
