<svg width="26" height="26" viewBox="0 0 26 26" fill="none" xmlns="http://www.w3.org/2000/svg">
<path d="M7.58335 9.74935C8.30165 9.74935 8.99052 9.46401 9.49843 8.9561C10.0063 8.44819 10.2917 7.75931 10.2917 7.04102C10.2917 6.32272 10.0063 5.63385 9.49843 5.12593C8.99052 4.61802 8.30165 4.33268 7.58335 4.33268C6.86506 4.33268 6.17618 4.61802 5.66827 5.12593C5.16036 5.63385 4.87502 6.32272 4.87502 7.04102C4.87502 7.75931 5.16036 8.44819 5.66827 8.9561C6.17618 9.46401 6.86506 9.74935 7.58335 9.74935ZM7.58335 11.916C6.94316 11.916 6.30923 11.7899 5.71777 11.5449C5.12631 11.2999 4.58889 10.9408 4.13621 10.4882C3.68352 10.0355 3.32443 9.49806 3.07944 8.9066C2.83445 8.31514 2.70835 7.68121 2.70835 7.04102C2.70835 6.40082 2.83445 5.7669 3.07944 5.17543C3.32443 4.58397 3.68352 4.04656 4.13621 3.59387C4.58889 3.14118 5.12631 2.78209 5.71777 2.5371C6.30923 2.29211 6.94316 2.16602 7.58335 2.16602C8.87628 2.16602 10.1163 2.67963 11.0305 3.59387C11.9447 4.50811 12.4584 5.74809 12.4584 7.04102C12.4584 8.33395 11.9447 9.57392 11.0305 10.4882C10.1163 11.4024 8.87628 11.916 7.58335 11.916ZM18.9584 14.0827C19.533 14.0827 20.0841 13.8544 20.4904 13.4481C20.8967 13.0418 21.125 12.4907 21.125 11.916C21.125 11.3414 20.8967 10.7903 20.4904 10.384C20.0841 9.97762 19.533 9.74935 18.9584 9.74935C18.3837 9.74935 17.8326 9.97762 17.4263 10.384C17.02 10.7903 16.7917 11.3414 16.7917 11.916C16.7917 12.4907 17.02 13.0418 17.4263 13.4481C17.8326 13.8544 18.3837 14.0827 18.9584 14.0827ZM18.9584 16.2493C17.8091 16.2493 16.7069 15.7928 15.8942 14.9801C15.0816 14.1675 14.625 13.0653 14.625 11.916C14.625 10.7667 15.0816 9.66454 15.8942 8.85189C16.7069 8.03923 17.8091 7.58268 18.9584 7.58268C20.1076 7.58268 21.2098 8.03923 22.0225 8.85189C22.8351 9.66454 23.2917 10.7667 23.2917 11.916C23.2917 13.0653 22.8351 14.1675 22.0225 14.9801C21.2098 15.7928 20.1076 16.2493 18.9584 16.2493ZM21.6667 22.7493V22.2077C21.6667 21.4894 21.3813 20.8005 20.8734 20.2926C20.3655 19.7847 19.6766 19.4993 18.9584 19.4993C18.2401 19.4993 17.5512 19.7847 17.0433 20.2926C16.5354 20.8005 16.25 21.4894 16.25 22.2077V22.7493H14.0834V22.2077C14.0834 21.5675 14.2094 20.9336 14.4544 20.3421C14.6994 19.7506 15.0585 19.2132 15.5112 18.7605C15.9639 18.3079 16.5013 17.9488 17.0928 17.7038C17.6842 17.4588 18.3182 17.3327 18.9584 17.3327C19.5985 17.3327 20.2325 17.4588 20.8239 17.7038C21.4154 17.9488 21.9528 18.3079 22.4055 18.7605C22.8582 19.2132 23.2173 19.7506 23.4623 20.3421C23.7073 20.9336 23.8334 21.5675 23.8334 22.2077V22.7493H21.6667ZM10.8334 22.7493V18.416C10.8334 17.5541 10.4909 16.7274 9.88145 16.1179C9.27196 15.5084 8.44531 15.166 7.58335 15.166C6.7214 15.166 5.89475 15.5084 5.28526 16.1179C4.67576 16.7274 4.33335 17.5541 4.33335 18.416V22.7493H2.16669V18.416C2.16669 16.9794 2.73737 15.6017 3.75319 14.5859C4.76901 13.57 6.14676 12.9993 7.58335 12.9993C9.01994 12.9993 10.3977 13.57 11.4135 14.5859C12.4293 15.6017 13 16.9794 13 18.416V22.7493H10.8334Z" fill="#2A9FE8"/>
</svg>
